<mxfile host="app.diagrams.net" modified="2024-01-23T09:42:43.593Z" agent="Mozilla/5.0 (Macintosh; Intel Mac OS X 10_15_7) AppleWebKit/537.36 (KHTML, like Gecko) Chrome/120.0.0.0 Safari/537.36" etag="ozCBsCBhGsb-o0T_azHW" version="22.1.21" type="github">
  <diagram name="페이지-1" id="hwWPJGjMmPQbhfqjNfXL">
    <mxGraphModel dx="954" dy="615" grid="1" gridSize="10" guides="1" tooltips="1" connect="1" arrows="1" fold="1" page="1" pageScale="1" pageWidth="1100" pageHeight="850" math="0" shadow="0">
      <root>
        <mxCell id="0" />
        <mxCell id="1" parent="0" />
        <mxCell id="OJWQh5DI99vr6rUPevvX-3" value="" style="rounded=1;whiteSpace=wrap;html=1;fillColor=none;strokeWidth=6;shadow=1;" vertex="1" parent="1">
          <mxGeometry x="220" y="190" width="360" height="580" as="geometry" />
        </mxCell>
        <mxCell id="OJWQh5DI99vr6rUPevvX-1" value="" style="ellipse;whiteSpace=wrap;html=1;strokeWidth=6;opacity=90;fillColor=default;" vertex="1" parent="1">
          <mxGeometry x="307.5" y="230" width="195" height="110" as="geometry" />
        </mxCell>
        <mxCell id="OJWQh5DI99vr6rUPevvX-4" value="" style="ellipse;whiteSpace=wrap;html=1;strokeWidth=6;opacity=90;fillColor=default;" vertex="1" parent="1">
          <mxGeometry x="307.5" y="370" width="195" height="110" as="geometry" />
        </mxCell>
        <mxCell id="OJWQh5DI99vr6rUPevvX-5" value="" style="ellipse;whiteSpace=wrap;html=1;strokeWidth=6;opacity=90;fillColor=default;" vertex="1" parent="1">
          <mxGeometry x="307.5" y="510" width="195" height="110" as="geometry" />
        </mxCell>
        <mxCell id="OJWQh5DI99vr6rUPevvX-6" value="" style="ellipse;whiteSpace=wrap;html=1;strokeWidth=6;opacity=90;fillColor=default;" vertex="1" parent="1">
          <mxGeometry x="310" y="640" width="192.5" height="110" as="geometry" />
        </mxCell>
        <mxCell id="OJWQh5DI99vr6rUPevvX-8" value="입력" style="text;strokeColor=none;align=center;fillColor=none;html=1;verticalAlign=middle;whiteSpace=wrap;rounded=0;fontSize=24;" vertex="1" parent="1">
          <mxGeometry x="355" y="260" width="105" height="50" as="geometry" />
        </mxCell>
        <mxCell id="OJWQh5DI99vr6rUPevvX-9" value="조회" style="text;strokeColor=none;align=center;fillColor=none;html=1;verticalAlign=middle;whiteSpace=wrap;rounded=0;fontSize=24;" vertex="1" parent="1">
          <mxGeometry x="352.5" y="400" width="105" height="50" as="geometry" />
        </mxCell>
        <mxCell id="OJWQh5DI99vr6rUPevvX-10" value="수정" style="text;strokeColor=none;align=center;fillColor=none;html=1;verticalAlign=middle;whiteSpace=wrap;rounded=0;fontSize=24;" vertex="1" parent="1">
          <mxGeometry x="355" y="540" width="105" height="50" as="geometry" />
        </mxCell>
        <mxCell id="OJWQh5DI99vr6rUPevvX-11" value="삭제" style="text;strokeColor=none;align=center;fillColor=none;html=1;verticalAlign=middle;whiteSpace=wrap;rounded=0;fontSize=24;" vertex="1" parent="1">
          <mxGeometry x="355" y="670" width="105" height="50" as="geometry" />
        </mxCell>
        <mxCell id="OJWQh5DI99vr6rUPevvX-12" value="Actor" style="shape=umlActor;verticalLabelPosition=bottom;verticalAlign=top;html=1;outlineConnect=0;" vertex="1" parent="1">
          <mxGeometry x="840" y="400" width="110" height="170" as="geometry" />
        </mxCell>
        <mxCell id="OJWQh5DI99vr6rUPevvX-13" value="" style="rounded=0;whiteSpace=wrap;html=1;fillColor=none;strokeWidth=7;" vertex="1" parent="1">
          <mxGeometry x="650" y="390" width="140" height="190" as="geometry" />
        </mxCell>
        <mxCell id="OJWQh5DI99vr6rUPevvX-14" value="브라우저" style="text;strokeColor=none;align=center;fillColor=none;html=1;verticalAlign=middle;whiteSpace=wrap;rounded=0;fontSize=22;" vertex="1" parent="1">
          <mxGeometry x="675" y="460" width="90" height="50" as="geometry" />
        </mxCell>
        <mxCell id="OJWQh5DI99vr6rUPevvX-15" value="" style="endArrow=classic;startArrow=classic;html=1;rounded=0;strokeWidth=6;" edge="1" parent="1">
          <mxGeometry width="50" height="50" relative="1" as="geometry">
            <mxPoint x="800" y="480" as="sourcePoint" />
            <mxPoint x="890" y="480" as="targetPoint" />
          </mxGeometry>
        </mxCell>
        <mxCell id="OJWQh5DI99vr6rUPevvX-17" value="" style="endArrow=classic;html=1;rounded=0;strokeWidth=6;entryX=1;entryY=0.5;entryDx=0;entryDy=0;exitX=-0.007;exitY=0.442;exitDx=0;exitDy=0;exitPerimeter=0;" edge="1" parent="1" source="OJWQh5DI99vr6rUPevvX-13" target="OJWQh5DI99vr6rUPevvX-1">
          <mxGeometry width="50" height="50" relative="1" as="geometry">
            <mxPoint x="680" y="370" as="sourcePoint" />
            <mxPoint x="660" y="290" as="targetPoint" />
            <Array as="points" />
          </mxGeometry>
        </mxCell>
        <mxCell id="OJWQh5DI99vr6rUPevvX-18" value="" style="endArrow=classic;startArrow=classic;html=1;rounded=0;strokeWidth=6;exitX=1;exitY=0.5;exitDx=0;exitDy=0;" edge="1" parent="1" source="OJWQh5DI99vr6rUPevvX-4">
          <mxGeometry width="50" height="50" relative="1" as="geometry">
            <mxPoint x="560" y="484.5" as="sourcePoint" />
            <mxPoint x="650" y="484.5" as="targetPoint" />
          </mxGeometry>
        </mxCell>
        <mxCell id="OJWQh5DI99vr6rUPevvX-19" value="" style="endArrow=classic;html=1;rounded=0;strokeWidth=6;entryX=1;entryY=0.5;entryDx=0;entryDy=0;exitX=-0.043;exitY=0.558;exitDx=0;exitDy=0;exitPerimeter=0;" edge="1" parent="1" source="OJWQh5DI99vr6rUPevvX-13">
          <mxGeometry width="50" height="50" relative="1" as="geometry">
            <mxPoint x="650" y="750" as="sourcePoint" />
            <mxPoint x="504" y="561" as="targetPoint" />
            <Array as="points" />
          </mxGeometry>
        </mxCell>
        <mxCell id="OJWQh5DI99vr6rUPevvX-20" value="" style="endArrow=classic;html=1;rounded=0;strokeWidth=6;exitX=-0.007;exitY=0.547;exitDx=0;exitDy=0;exitPerimeter=0;entryX=1;entryY=0.5;entryDx=0;entryDy=0;" edge="1" parent="1" source="OJWQh5DI99vr6rUPevvX-13" target="OJWQh5DI99vr6rUPevvX-6">
          <mxGeometry width="50" height="50" relative="1" as="geometry">
            <mxPoint x="654" y="506" as="sourcePoint" />
            <mxPoint x="514" y="571" as="targetPoint" />
            <Array as="points" />
          </mxGeometry>
        </mxCell>
      </root>
    </mxGraphModel>
  </diagram>
</mxfile>
